# xmcd
#
# Track frame offsets: 
#        150
#        14592
#        26947
#        38942
#        53372
#        65862
#        79242
#        93420
#        106845
#        120595
#        132560
#        146272
#        161105
#        174060
#        191027
#        201410
#        211687
#
# Disc length: 3023 seconds
#
# Revision: 1
# Processed by: cddbd v1.5.2PL0 Copyright (c) Steve Scherf et al.
# Submitted via: ExactAudioCopy v0.99pb4
#
DISCID=f00bcd11
DTITLE=Various Artist - The Story of Jazz Vol.4 - The Swing Era
DYEAR=1900
DGENRE=Jazz
TTITLE0=Benny Goodman and His Orchestra - King Poter Stomp
TTITLE1=Red Norvo and His Swing Septet - Tomboy
TTITLE2=Chick Webb and His Orchestra - Don't Be That Way
TTITLE3=Bud Freeman and His Windy City Five - The Buzzard
TTITLE4=Freddie Jenikins and His Harlem Seven - Toledo Shuffle
TTITLE5=Mound City Blue Blowers - Muskrat Ramble
TTITLE6=Teddy Wilson and His Orchestra - Why Do I Lie To Myself About 
TTITLE6=You
TTITLE7=Gene Krupa and His Swing Band - Swing Is Here
TTITLE8=Mezz Mezzrow and His Swing Band - Mutiny In The Parlour
TTITLE9=Bunny Berigan and His Boys - Rhythm Saved The World
TTITLE10=Barney Bigard and His Jazzopators - Frolic Sam
TTITLE11=Bob Crosby and His Orchestra - Woman On My Weary Mind
TTITLE12=Jones-Smith Incorporated - Shoe Shine Boy
TTITLE13=Glenn Miller and His Orchestra - By The Waters Of Minnetonka
TTITLE14=Stan Kenton and His Orchestra - I Got Rhythm
TTITLE15=Carmen Cavallaro and His Orchestra - Rose Room
TTITLE16=Alvino Rey and His Orchestra - Dardanella
EXTD=
EXTT0=
EXTT1=
EXTT2=
EXTT3=
EXTT4=
EXTT5=
EXTT6=
EXTT7=
EXTT8=
EXTT9=
EXTT10=
EXTT11=
EXTT12=
EXTT13=
EXTT14=
EXTT15=
EXTT16=
PLAYORDER=
